<mxfile modified="2024-08-21T10:15:28.959Z" host="app.diagrams.net" agent="Mozilla/5.0 (X11; Linux x86_64) AppleWebKit/537.36 (KHTML, like Gecko) Chrome/127.0.0.0 Safari/537.36" etag="9r0TpZzEjw7C83iHtGhY" version="24.5.4" type="device">
  <diagram id="Zvwz67AQl7GJ8yocFVRq" name="Page-1">
    <mxGraphModel dx="1434" dy="1580" grid="1" gridSize="10" guides="0" tooltips="1" connect="1" arrows="1" fold="1" page="0" pageScale="1" pageWidth="850" pageHeight="1100" math="0" shadow="0">
      <root>
        <mxCell id="h4QFuuLMfTb6gsujHbuY-0" />
        <mxCell id="h4QFuuLMfTb6gsujHbuY-1" parent="h4QFuuLMfTb6gsujHbuY-0" />
        <mxCell id="-_LDYPfVLb7HdBtJGPVf-0" value="On&lt;div&gt;treatment&lt;/div&gt;" style="ellipse;whiteSpace=wrap;html=1;aspect=fixed;fillColor=#B9E0A5;" vertex="1" parent="h4QFuuLMfTb6gsujHbuY-1">
          <mxGeometry x="-80" y="-80" width="80" height="80" as="geometry" />
        </mxCell>
        <mxCell id="-_LDYPfVLb7HdBtJGPVf-3" value="" style="curved=1;endArrow=classic;html=1;rounded=0;exitX=0.5;exitY=0;exitDx=0;exitDy=0;entryX=1;entryY=0.5;entryDx=0;entryDy=0;" edge="1" parent="h4QFuuLMfTb6gsujHbuY-1" source="-_LDYPfVLb7HdBtJGPVf-0" target="-_LDYPfVLb7HdBtJGPVf-0">
          <mxGeometry width="50" height="50" relative="1" as="geometry">
            <mxPoint x="-30" y="-80" as="sourcePoint" />
            <mxPoint x="20" y="-130" as="targetPoint" />
            <Array as="points">
              <mxPoint x="-10" y="-100" />
              <mxPoint x="20" y="-70" />
            </Array>
          </mxGeometry>
        </mxCell>
        <mxCell id="-_LDYPfVLb7HdBtJGPVf-4" value="On&lt;div&gt;treatment&lt;/div&gt;" style="ellipse;whiteSpace=wrap;html=1;aspect=fixed;fillColor=#B9E0A5;" vertex="1" parent="h4QFuuLMfTb6gsujHbuY-1">
          <mxGeometry x="80" y="-80" width="80" height="80" as="geometry" />
        </mxCell>
        <mxCell id="-_LDYPfVLb7HdBtJGPVf-5" value="" style="curved=1;endArrow=classic;html=1;rounded=0;exitX=0.5;exitY=0;exitDx=0;exitDy=0;entryX=1;entryY=0.5;entryDx=0;entryDy=0;" edge="1" parent="h4QFuuLMfTb6gsujHbuY-1" source="-_LDYPfVLb7HdBtJGPVf-4" target="-_LDYPfVLb7HdBtJGPVf-4">
          <mxGeometry width="50" height="50" relative="1" as="geometry">
            <mxPoint x="130" y="-80" as="sourcePoint" />
            <mxPoint x="180" y="-130" as="targetPoint" />
            <Array as="points">
              <mxPoint x="150" y="-100" />
              <mxPoint x="180" y="-70" />
            </Array>
          </mxGeometry>
        </mxCell>
        <mxCell id="-_LDYPfVLb7HdBtJGPVf-6" value="" style="endArrow=classic;html=1;rounded=0;exitX=1;exitY=0.5;exitDx=0;exitDy=0;entryX=0;entryY=0.5;entryDx=0;entryDy=0;" edge="1" parent="h4QFuuLMfTb6gsujHbuY-1" source="-_LDYPfVLb7HdBtJGPVf-0" target="-_LDYPfVLb7HdBtJGPVf-4">
          <mxGeometry width="50" height="50" relative="1" as="geometry">
            <mxPoint x="180" y="230" as="sourcePoint" />
            <mxPoint x="230" y="180" as="targetPoint" />
          </mxGeometry>
        </mxCell>
        <mxCell id="-_LDYPfVLb7HdBtJGPVf-7" value="First line" style="text;html=1;align=center;verticalAlign=middle;whiteSpace=wrap;rounded=0;fontStyle=1" vertex="1" parent="h4QFuuLMfTb6gsujHbuY-1">
          <mxGeometry x="-70" y="-130" width="60" height="30" as="geometry" />
        </mxCell>
        <mxCell id="-_LDYPfVLb7HdBtJGPVf-8" value="Subsequent lines&lt;div&gt;&lt;span style=&quot;font-weight: normal;&quot;&gt;(second to fourth)&lt;/span&gt;&lt;/div&gt;" style="text;html=1;align=center;verticalAlign=middle;whiteSpace=wrap;rounded=0;fontStyle=1" vertex="1" parent="h4QFuuLMfTb6gsujHbuY-1">
          <mxGeometry x="60" y="-130" width="120" height="30" as="geometry" />
        </mxCell>
        <mxCell id="-_LDYPfVLb7HdBtJGPVf-9" value="Best supportive care" style="ellipse;whiteSpace=wrap;html=1;aspect=fixed;fillColor=#D4E1F5;" vertex="1" parent="h4QFuuLMfTb6gsujHbuY-1">
          <mxGeometry x="240" y="-80" width="80" height="80" as="geometry" />
        </mxCell>
        <mxCell id="-_LDYPfVLb7HdBtJGPVf-10" value="" style="curved=1;endArrow=classic;html=1;rounded=0;exitX=0.5;exitY=0;exitDx=0;exitDy=0;entryX=1;entryY=0.5;entryDx=0;entryDy=0;" edge="1" parent="h4QFuuLMfTb6gsujHbuY-1" source="-_LDYPfVLb7HdBtJGPVf-9" target="-_LDYPfVLb7HdBtJGPVf-9">
          <mxGeometry width="50" height="50" relative="1" as="geometry">
            <mxPoint x="290" y="-80" as="sourcePoint" />
            <mxPoint x="340" y="-130" as="targetPoint" />
            <Array as="points">
              <mxPoint x="310" y="-100" />
              <mxPoint x="340" y="-70" />
            </Array>
          </mxGeometry>
        </mxCell>
        <mxCell id="-_LDYPfVLb7HdBtJGPVf-11" value="" style="endArrow=classic;html=1;rounded=0;exitX=1;exitY=0.5;exitDx=0;exitDy=0;entryX=0;entryY=0.5;entryDx=0;entryDy=0;" edge="1" parent="h4QFuuLMfTb6gsujHbuY-1" target="-_LDYPfVLb7HdBtJGPVf-9">
          <mxGeometry width="50" height="50" relative="1" as="geometry">
            <mxPoint x="160" y="-40" as="sourcePoint" />
            <mxPoint x="390" y="180" as="targetPoint" />
          </mxGeometry>
        </mxCell>
        <mxCell id="-_LDYPfVLb7HdBtJGPVf-13" value="Off&lt;div&gt;treatment&lt;/div&gt;" style="ellipse;whiteSpace=wrap;html=1;aspect=fixed;fillColor=#FFF2CC;" vertex="1" parent="h4QFuuLMfTb6gsujHbuY-1">
          <mxGeometry x="-80" y="40" width="80" height="80" as="geometry" />
        </mxCell>
        <mxCell id="-_LDYPfVLb7HdBtJGPVf-14" value="" style="curved=1;endArrow=classic;html=1;rounded=0;exitX=0.5;exitY=0;exitDx=0;exitDy=0;entryX=1;entryY=0.5;entryDx=0;entryDy=0;" edge="1" parent="h4QFuuLMfTb6gsujHbuY-1" source="-_LDYPfVLb7HdBtJGPVf-13" target="-_LDYPfVLb7HdBtJGPVf-13">
          <mxGeometry width="50" height="50" relative="1" as="geometry">
            <mxPoint x="-30" y="40" as="sourcePoint" />
            <mxPoint x="20" y="-10" as="targetPoint" />
            <Array as="points">
              <mxPoint x="-10" y="20" />
              <mxPoint x="20" y="50" />
            </Array>
          </mxGeometry>
        </mxCell>
        <mxCell id="-_LDYPfVLb7HdBtJGPVf-15" value="" style="endArrow=classic;html=1;rounded=0;exitX=0.5;exitY=1;exitDx=0;exitDy=0;" edge="1" parent="h4QFuuLMfTb6gsujHbuY-1" source="-_LDYPfVLb7HdBtJGPVf-0" target="-_LDYPfVLb7HdBtJGPVf-13">
          <mxGeometry width="50" height="50" relative="1" as="geometry">
            <mxPoint x="180" y="230" as="sourcePoint" />
            <mxPoint x="230" y="180" as="targetPoint" />
          </mxGeometry>
        </mxCell>
        <mxCell id="-_LDYPfVLb7HdBtJGPVf-16" value="Off&lt;div&gt;treatment&lt;/div&gt;" style="ellipse;whiteSpace=wrap;html=1;aspect=fixed;fillColor=#FFF2CC;" vertex="1" parent="h4QFuuLMfTb6gsujHbuY-1">
          <mxGeometry x="80" y="40" width="80" height="80" as="geometry" />
        </mxCell>
        <mxCell id="-_LDYPfVLb7HdBtJGPVf-17" value="" style="curved=1;endArrow=classic;html=1;rounded=0;exitX=0.5;exitY=0;exitDx=0;exitDy=0;entryX=1;entryY=0.5;entryDx=0;entryDy=0;" edge="1" parent="h4QFuuLMfTb6gsujHbuY-1" source="-_LDYPfVLb7HdBtJGPVf-16" target="-_LDYPfVLb7HdBtJGPVf-16">
          <mxGeometry width="50" height="50" relative="1" as="geometry">
            <mxPoint x="130" y="40" as="sourcePoint" />
            <mxPoint x="180" y="-10" as="targetPoint" />
            <Array as="points">
              <mxPoint x="150" y="20" />
              <mxPoint x="180" y="50" />
            </Array>
          </mxGeometry>
        </mxCell>
        <mxCell id="-_LDYPfVLb7HdBtJGPVf-18" value="" style="endArrow=classic;html=1;rounded=0;exitX=0.5;exitY=1;exitDx=0;exitDy=0;" edge="1" parent="h4QFuuLMfTb6gsujHbuY-1" target="-_LDYPfVLb7HdBtJGPVf-16">
          <mxGeometry width="50" height="50" relative="1" as="geometry">
            <mxPoint x="120" as="sourcePoint" />
            <mxPoint x="390" y="180" as="targetPoint" />
          </mxGeometry>
        </mxCell>
        <mxCell id="-_LDYPfVLb7HdBtJGPVf-19" value="" style="endArrow=classic;html=1;rounded=0;exitX=1;exitY=0;exitDx=0;exitDy=0;entryX=0;entryY=0.5;entryDx=0;entryDy=0;" edge="1" parent="h4QFuuLMfTb6gsujHbuY-1" source="-_LDYPfVLb7HdBtJGPVf-13" target="-_LDYPfVLb7HdBtJGPVf-4">
          <mxGeometry width="50" height="50" relative="1" as="geometry">
            <mxPoint x="180" y="230" as="sourcePoint" />
            <mxPoint x="230" y="180" as="targetPoint" />
          </mxGeometry>
        </mxCell>
        <mxCell id="-_LDYPfVLb7HdBtJGPVf-20" value="" style="endArrow=classic;html=1;rounded=0;entryX=0;entryY=0.5;entryDx=0;entryDy=0;" edge="1" parent="h4QFuuLMfTb6gsujHbuY-1" source="-_LDYPfVLb7HdBtJGPVf-16" target="-_LDYPfVLb7HdBtJGPVf-9">
          <mxGeometry width="50" height="50" relative="1" as="geometry">
            <mxPoint x="10" y="90" as="sourcePoint" />
            <mxPoint x="90" y="-30" as="targetPoint" />
          </mxGeometry>
        </mxCell>
        <mxCell id="-_LDYPfVLb7HdBtJGPVf-21" value="Death" style="ellipse;whiteSpace=wrap;html=1;aspect=fixed;fillColor=#E6D0DE;" vertex="1" parent="h4QFuuLMfTb6gsujHbuY-1">
          <mxGeometry x="360" y="40" width="80" height="80" as="geometry" />
        </mxCell>
        <mxCell id="-_LDYPfVLb7HdBtJGPVf-22" value="" style="curved=1;endArrow=classic;html=1;rounded=0;exitX=0.5;exitY=0;exitDx=0;exitDy=0;entryX=1;entryY=0.5;entryDx=0;entryDy=0;" edge="1" parent="h4QFuuLMfTb6gsujHbuY-1" source="-_LDYPfVLb7HdBtJGPVf-21" target="-_LDYPfVLb7HdBtJGPVf-21">
          <mxGeometry width="50" height="50" relative="1" as="geometry">
            <mxPoint x="410" y="40" as="sourcePoint" />
            <mxPoint x="460" y="-10" as="targetPoint" />
            <Array as="points">
              <mxPoint x="430" y="20" />
              <mxPoint x="460" y="50" />
            </Array>
          </mxGeometry>
        </mxCell>
        <mxCell id="-_LDYPfVLb7HdBtJGPVf-23" value="Can be entered from any&lt;div&gt;health state:&lt;/div&gt;" style="text;html=1;align=center;verticalAlign=middle;whiteSpace=wrap;rounded=0;" vertex="1" parent="h4QFuuLMfTb6gsujHbuY-1">
          <mxGeometry x="270" y="60" width="90" height="30" as="geometry" />
        </mxCell>
      </root>
    </mxGraphModel>
  </diagram>
</mxfile>
